<?xml version="1.0" encoding="UTF-8"?><svg id="Layer_2" xmlns="http://www.w3.org/2000/svg" viewBox="0 0 3274.24 889.59"><defs><style>.cls-1{fill:#006fcf;}</style></defs><g id="Layer_1-2"><path class="cls-1" d="m3149.43,647.94h-95.59c-21.25,0-34.53-13.28-34.53-31.87s15.93-29.21,34.53-29.21h172.61l39.83-87.63h-212.44c-87.63,0-138.09,53.11-138.09,122.15,0,74.36,47.8,116.84,124.81,116.84h95.59c21.25,0,34.53,13.28,34.53,31.86s-13.28,31.86-34.53,31.86h-207.13v87.63h207.13c87.63,0,138.09-50.45,138.09-124.8s-45.14-116.85-124.81-116.85Zm-379.74,0h-95.6c-21.24,0-34.52-13.28-34.52-31.87s15.93-29.21,34.52-29.21h172.61l39.83-87.63h-212.44c-87.63,0-138.08,53.11-138.08,122.15,0,74.36,47.8,116.84,124.8,116.84h95.6c21.25,0,34.52,13.28,34.52,31.86s-13.27,31.86-34.52,31.86h-207.13v87.63h207.13c87.63,0,138.09-50.45,138.09-124.8s-45.15-116.85-124.81-116.85Zm-605.46,239h326.63v-87.63h-223.07v-63.73h217.75v-87.63h-217.75v-61.08h223.07v-87.63h-326.63v387.7Zm-204.47-223.06h-108.88v-77.01h108.88c31.86,0,47.8,18.59,47.8,39.83-2.65,21.24-18.59,37.18-47.8,37.18Zm151.36-39.83c0-74.35-53.11-124.81-138.08-124.81h-223.06v387.7h103.56v-135.43h37.17l116.84,135.43h127.47l-127.47-140.74c63.74-13.28,103.56-61.08,103.56-122.15Zm-557.65,47.8h-111.53v-84.98h111.53c31.86,0,47.8,18.59,47.8,42.49-2.65,23.9-18.59,42.49-47.8,42.49Zm10.62-172.61h-225.72v387.7h103.56v-127.47h119.5c87.63,0,140.74-55.77,140.74-130.12s-53.11-130.12-138.08-130.12Zm-244.31,0h-132.77l-100.91,116.84-100.91-116.84h-135.44l169.95,191.19-172.61,196.51h132.77l103.56-122.15,106.22,122.15h135.43l-175.26-199.16,169.95-188.54Zm-815.24,387.7h326.63v-87.63h-223.06v-63.73h217.75v-87.63h-217.75v-61.08h223.06v-87.63h-326.63v387.7Z"/><path class="cls-1" d="m3101.63,236.34L2942.3,0h-130.12v387.7h103.56v-246.96l161.98,246.96h124.81V0h-100.91v236.34Zm-602.8-13.28l53.11-130.12,53.11,130.12h-106.22Zm-10.62-223.06l-169.95,387.7h114.19l31.86-79.67h180.57l34.53,79.67h116.84L2620.99,0h-132.77Zm-339.91,196.51v-7.97c0-58.42,31.86-98.25,98.26-98.25h116.84V0h-124.81c-127.47,0-193.85,82.32-193.85,188.54v7.97c0,119.5,74.35,188.54,188.54,188.54h34.52l42.49-87.63h-61.08c-61.08,2.66-100.91-31.87-100.91-100.91ZM1888.06,0v387.7h103.56V0h-103.56Zm-207.13,164.64h-108.88v-77.01h108.88c31.86,0,47.8,18.59,47.8,39.83s-15.93,37.18-47.8,37.18Zm151.36-39.83c0-74.35-53.11-124.81-138.08-124.81h-223.07v387.7h103.56v-135.43h37.18l116.84,135.43h130.12l-127.47-140.74c63.74-13.28,100.91-61.08,100.91-122.15Zm-756.82,262.9h326.62v-87.63h-223.06v-63.73h217.75v-87.63h-217.75v-61.08h223.06V0h-326.62v387.7Zm-329.28-143.4L658.56,0h-161.99v387.7h100.91V108.88l100.91,278.83h92.94l103.56-278.83v278.83h100.91V0h-161.98l-87.63,244.31Zm-562.97-21.24l53.11-130.12,53.11,130.12h-106.22ZM169.95,0L0,387.7h114.19l31.87-79.67h180.57l34.52,79.67h116.84L305.38,0h-135.43Z"/></g></svg>