<?xml version="1.0" standalone="no"?>
<!DOCTYPE svg PUBLIC "-//W3C//DTD SVG 20010904//EN"
 "http://www.w3.org/TR/2001/REC-SVG-20010904/DTD/svg10.dtd">
<svg version="1.0" xmlns="http://www.w3.org/2000/svg"
 width="500.000000pt" height="500.000000pt" viewBox="0 0 500.000000 500.000000"
 preserveAspectRatio="xMidYMid meet">

<g transform="translate(0.000000,500.000000) scale(0.100000,-0.100000)"
fill="#000000" stroke="none">
<path d="M470 2946 c-177 -50 -309 -200 -340 -388 -30 -177 44 -321 196 -377
80 -31 243 -27 319 7 77 35 149 95 194 163 46 69 47 68 26 -56 -8 -49 -15 -96
-15 -103 0 -10 101 -12 487 -10 l487 3 61 200 c34 110 64 207 67 215 6 17 10
4 69 -243 l42 -178 40 3 41 3 116 202 c64 112 120 206 125 210 4 5 5 -88 2
-204 l-6 -213 99 0 100 0 1 113 c1 112 1 112 16 70 21 -60 94 -137 161 -170
79 -39 219 -45 320 -14 97 29 185 91 241 168 l45 63 27 -58 c33 -73 86 -127
158 -161 46 -21 74 -27 156 -29 114 -4 192 16 276 69 144 91 240 276 226 431
-23 254 -322 378 -587 243 -65 -33 -124 -83 -169 -142 l-38 -51 -12 38 c-18
60 -99 142 -173 175 -157 71 -366 32 -501 -93 -62 -59 -104 -119 -128 -185
l-18 -52 -1 173 0 173 -97 -3 -98 -3 -110 -197 c-60 -108 -113 -194 -116 -190
-3 4 -16 54 -28 112 -13 58 -32 144 -43 193 l-20 87 -96 0 -97 0 -95 -291
c-52 -160 -99 -293 -105 -295 -6 -3 -75 -3 -154 -2 l-143 3 198 260 c108 143
208 275 222 293 l24 32 -315 0 -314 0 -7 -52 c-4 -29 -9 -68 -12 -85 l-6 -32
147 -3 147 -3 -201 -262 c-111 -145 -203 -263 -205 -263 -2 0 -2 8 0 18 7 30
104 655 104 669 0 11 -20 13 -97 11 l-97 -3 -26 -165 -25 -165 -187 -3 c-211
-3 -190 8 -204 -99 l-7 -53 77 0 c84 0 89 -4 56 -57 -42 -70 -171 -97 -241
-50 -47 31 -79 98 -79 164 0 104 71 228 154 267 40 19 121 21 156 3 22 -11 63
-62 73 -90 2 -7 32 0 93 23 49 18 93 37 98 41 15 13 -34 97 -81 139 -27 23
-67 46 -96 55 -60 18 -194 18 -257 1z m2656 -201 c57 -34 84 -79 84 -144 0
-135 -112 -251 -243 -251 -229 0 -253 301 -32 401 59 27 138 25 191 -6z m797
-5 c54 -37 80 -91 75 -153 -11 -133 -119 -236 -246 -237 -104 0 -171 61 -180
164 -6 69 11 118 57 169 78 87 212 113 294 57z"/>
<path d="M4246 2888 c-4 -29 -9 -68 -12 -85 l-6 -32 147 -3 147 -3 -222 -290
-222 -290 313 -3 c173 -1 319 0 325 2 6 2 15 31 18 63 4 32 10 68 13 80 5 22
5 22 -152 25 l-157 3 198 260 c108 143 208 275 222 293 l24 32 -315 0 -314 0
-7 -52z"/>
</g>
</svg>
